<svg width="50" height="50" viewBox="0 0 50 50" fill="none" xmlns="http://www.w3.org/2000/svg">
<path d="M24.926 5.00334C21.9835 5.00334 19.1616 6.05761 17.0809 7.93422C15.0003 9.81084 13.8314 12.3561 13.8314 15.01C13.8314 17.6639 15.0003 20.2092 17.0809 22.0858C19.1616 23.9624 21.9835 25.0167 24.926 25.0167C27.8685 25.0167 30.6905 23.9624 32.7712 22.0858C34.8518 20.2092 36.0207 17.6639 36.0207 15.01C36.0207 12.3561 34.8518 9.81084 32.7712 7.93422C30.6905 6.05761 27.8685 5.00334 24.926 5.00334ZM8.28402 15.01C8.28402 13.0389 8.71448 11.087 9.55082 9.26593C10.3872 7.44483 11.613 5.79014 13.1584 4.39633C14.7037 3.00252 16.5383 1.89689 18.5574 1.14257C20.5765 0.388245 22.7406 0 24.926 0C27.1115 0 29.2756 0.388245 31.2947 1.14257C33.3138 1.89689 35.1484 3.00252 36.6937 4.39633C38.2391 5.79014 39.4649 7.44483 40.3013 9.26593C41.1376 11.087 41.5681 13.0389 41.5681 15.01C41.5681 18.9909 39.8147 22.8088 36.6937 25.6237C33.5727 28.4386 29.3398 30.02 24.926 30.02C20.5123 30.02 16.2793 28.4386 13.1584 25.6237C10.0374 22.8088 8.28402 18.9909 8.28402 15.01ZM13.8314 40.0267C11.6343 40.0267 9.52723 40.8139 7.97367 42.2151C6.42012 43.6163 5.54734 45.5167 5.54734 47.4983C5.54734 48.1618 5.25511 48.7981 4.73495 49.2673C4.21479 49.7364 3.50929 50 2.77367 50C2.03805 50 1.33255 49.7364 0.812389 49.2673C0.292225 48.7981 0 48.1618 0 47.4983C0 44.1721 1.46502 40.982 4.07278 38.63C6.68053 36.278 10.2174 34.9566 13.9053 34.9566H36.0947C39.7826 34.9566 43.3195 36.278 45.9272 38.63C48.535 40.982 50 44.1721 50 47.4983C50 48.1618 49.7078 48.7981 49.1876 49.2673C48.6674 49.7364 47.962 50 47.2263 50C46.4907 50 45.7852 49.7364 45.2651 49.2673C44.7449 48.7981 44.4527 48.1618 44.4527 47.4983C44.4527 45.5167 43.5799 43.6163 42.0263 42.2151C40.4728 40.8139 38.3657 40.0267 36.1686 40.0267H13.8314Z" fill="#213453"/>
</svg>
