<svg width="25" height="25" viewBox="0 0 25 25" fill="none" xmlns="http://www.w3.org/2000/svg">
<path d="M19.8 6.76668H18.4667L18.1333 5.73334C17.9185 5.11835 17.5173 4.5856 16.9856 4.20922C16.4539 3.83285 15.8181 3.63155 15.1666 3.63334H9.83332C9.17781 3.63393 8.539 3.84009 8.00681 4.22278C7.47462 4.60548 7.07585 5.14545 6.86665 5.76668L6.53332 6.80001H5.19998C4.36897 6.80001 3.572 7.13013 2.98438 7.71774C2.39677 8.30536 2.06665 9.10233 2.06665 9.93334V18.2667C2.06665 19.0977 2.39677 19.8947 2.98438 20.4823C3.572 21.0699 4.36897 21.4 5.19998 21.4H19.8C20.631 21.4 21.428 21.0699 22.0156 20.4823C22.6032 19.8947 22.9333 19.0977 22.9333 18.2667V9.93334C22.9377 9.51907 22.8599 9.10804 22.7044 8.72403C22.549 8.34002 22.3189 7.99066 22.0275 7.69616C21.7361 7.40167 21.3892 7.16788 21.0068 7.00834C20.6245 6.84879 20.2143 6.76665 19.8 6.76668ZM20.8333 18.2333C20.8333 18.5074 20.7244 18.7702 20.5307 18.964C20.3369 19.1578 20.074 19.2667 19.8 19.2667H5.19998C4.92593 19.2667 4.66309 19.1578 4.46931 18.964C4.27552 18.7702 4.16665 18.5074 4.16665 18.2333V9.90001C4.16665 9.62595 4.27552 9.36312 4.46931 9.16933C4.66309 8.97555 4.92593 8.86668 5.19998 8.86668H7.29998C7.52499 8.87861 7.74773 8.81668 7.93427 8.69031C8.12082 8.56394 8.26095 8.38006 8.33332 8.16668L8.89998 6.46668C8.97073 6.25893 9.10578 6.0791 9.28558 5.95324C9.46537 5.82738 9.68057 5.76204 9.89998 5.76668H15.2333C15.4527 5.76204 15.6679 5.82738 15.8477 5.95324C16.0275 6.0791 16.1626 6.25893 16.2333 6.46668L16.8 8.16668C16.8669 8.36379 16.9919 8.53609 17.1584 8.66099C17.325 8.7859 17.5253 8.85759 17.7333 8.86668H19.8333C19.969 8.86668 20.1034 8.8934 20.2288 8.94533C20.3541 8.99726 20.468 9.07338 20.564 9.16933C20.6599 9.26529 20.7361 9.3792 20.788 9.50457C20.8399 9.62994 20.8666 9.76431 20.8666 9.90001L20.8333 18.2333ZM12.5 8.86668C11.6759 8.86668 10.8703 9.11105 10.1851 9.56889C9.4999 10.0267 8.96585 10.6775 8.65049 11.4388C8.33512 12.2002 8.25261 13.038 8.41338 13.8462C8.57415 14.6545 8.97099 15.3969 9.5537 15.9796C10.1364 16.5623 10.8789 16.9592 11.6871 17.1199C12.4954 17.2807 13.3331 17.1982 14.0945 16.8828C14.8559 16.5675 15.5066 16.0334 15.9644 15.3482C16.4223 14.663 16.6666 13.8574 16.6666 13.0333C16.6666 11.9283 16.2277 10.8685 15.4463 10.0871C14.6649 9.30566 13.6051 8.86668 12.5 8.86668ZM12.5 15.1333C12.0846 15.1333 11.6786 15.0102 11.3333 14.7794C10.9879 14.5487 10.7188 14.2207 10.5598 13.837C10.4009 13.4533 10.3593 13.031 10.4403 12.6237C10.5214 12.2163 10.7214 11.8421 11.0151 11.5484C11.3087 11.2547 11.6829 11.0547 12.0903 10.9737C12.4977 10.8927 12.9199 10.9343 13.3036 11.0932C13.6873 11.2521 14.0153 11.5213 14.2461 11.8666C14.4768 12.212 14.6 12.618 14.6 13.0333C14.6 13.5903 14.3787 14.1244 13.9849 14.5183C13.5911 14.9121 13.0569 15.1333 12.5 15.1333Z" fill="#213453"/>
</svg>
