<svg width="24" height="25" viewBox="0 0 24 25" fill="none" xmlns="http://www.w3.org/2000/svg">
<path fill-rule="evenodd" clip-rule="evenodd" d="M3.32308 0H3.21231C2.80615 0 2.43692 8.81443e-09 2.10462 0.0757154C1.61281 0.199249 1.16344 0.458677 0.805399 0.825785C0.447353 1.19289 0.19433 1.65363 0.0738462 2.15789C8.59682e-09 2.49861 0 2.87718 0 3.33148V8.06369C0 8.48012 8.59682e-09 8.8587 0.0738462 9.19942C0.19433 9.70368 0.447353 10.1644 0.805399 10.5315C1.16344 10.8986 1.61281 11.1581 2.10462 11.2816C2.43692 11.3573 2.80615 11.3573 3.24923 11.3573H7.86462C8.27077 11.3573 8.64 11.3573 8.97231 11.2816C9.46876 11.155 9.92132 10.8899 10.2798 10.5157C10.6382 10.1415 10.8886 9.67278 11.0031 9.16156C11.0769 8.8587 11.0769 8.48012 11.0769 8.06369V3.33148C11.0769 2.91504 11.0769 2.53647 11.0031 2.19575C10.8857 1.67976 10.6298 1.20775 10.2644 0.833091C9.89899 0.458436 9.43863 0.196088 8.93538 0.0757154C8.64 8.81443e-09 8.27077 0 7.86462 0H3.32308ZM2.54769 1.93074C2.62154 1.89288 2.76923 1.89288 3.32308 1.89288H7.75385C8.30769 1.89288 8.45538 1.89288 8.52923 1.93074C8.68938 1.97289 8.83555 2.05836 8.95246 2.17824C9.06938 2.29811 9.15274 2.44798 9.19385 2.61218C9.23077 2.6879 9.23077 2.80147 9.23077 3.40719V7.95012C9.23077 8.51798 9.23077 8.66941 9.19385 8.74513C9.15274 8.90933 9.06938 9.0592 8.95246 9.17907C8.83555 9.29895 8.68938 9.38442 8.52923 9.42657C8.45538 9.46442 8.30769 9.46442 7.75385 9.46442H3.32308C2.76923 9.46442 2.62154 9.46442 2.54769 9.42657C2.38754 9.38442 2.24137 9.29895 2.12446 9.17907C2.00755 9.0592 1.92418 8.90933 1.88308 8.74513C1.84615 8.66941 1.84615 8.51798 1.84615 7.95012V3.40719C1.84615 2.83933 1.84615 2.6879 1.88308 2.61218C1.92418 2.44798 2.00755 2.29811 2.12446 2.17824C2.24137 2.05836 2.38754 1.97289 2.54769 1.93074ZM16.2462 0H16.1354C15.7292 0 15.36 8.81443e-09 15.0277 0.0757154C14.5359 0.199249 14.0865 0.458677 13.7285 0.825785C13.3704 1.19289 13.1174 1.65363 12.9969 2.15789C12.9231 2.49861 12.9231 2.87718 12.9231 3.33148V8.06369C12.9231 8.48012 12.9231 8.8587 12.9969 9.19942C13.1204 9.70844 13.3789 10.1725 13.7439 10.54C14.1089 10.9075 14.566 11.1642 15.0646 11.2816C15.36 11.3573 15.7292 11.3573 16.1723 11.3573H20.7877C21.1938 11.3573 21.5631 11.3573 21.8954 11.2816C22.3918 11.155 22.8444 10.8899 23.2029 10.5157C23.5613 10.1415 23.8117 9.67278 23.9262 9.16156C24 8.8587 24 8.48012 24 8.06369V3.33148C24 2.91504 24 2.53647 23.9262 2.19575C23.8117 1.68453 23.5613 1.21582 23.2029 0.841599C22.8444 0.467381 22.3918 0.202285 21.8954 0.0757154C21.5631 8.81443e-09 21.1938 0 20.7877 0H16.2462ZM15.4708 1.93074C15.5446 1.89288 15.6923 1.89288 16.2462 1.89288H20.6769C21.2308 1.89288 21.3785 1.89288 21.4523 1.93074C21.6125 1.97289 21.7586 2.05836 21.8755 2.17824C21.9925 2.29811 22.0758 2.44798 22.1169 2.61218C22.1538 2.6879 22.1538 2.80147 22.1538 3.40719V7.95012C22.1538 8.51798 22.1538 8.66941 22.1169 8.74513C22.0758 8.90933 21.9925 9.0592 21.8755 9.17907C21.7586 9.29895 21.6125 9.38442 21.4523 9.42657C21.3785 9.46442 21.2677 9.46442 20.6769 9.46442H16.2462C15.6923 9.46442 15.5446 9.46442 15.4708 9.42657C15.3106 9.38442 15.1644 9.29895 15.0475 9.17907C14.9306 9.0592 14.8473 8.90933 14.8062 8.74513C14.7692 8.66941 14.7692 8.51798 14.7692 7.95012V3.40719C14.7692 2.83933 14.7692 2.6879 14.8062 2.61218C14.8473 2.44798 14.9306 2.29811 15.0475 2.17824C15.1644 2.05836 15.3106 1.97289 15.4708 1.93074ZM3.24923 13.2502H7.86462C8.27077 13.2502 8.64 13.2502 8.97231 13.3259C9.46876 13.4525 9.92132 13.7176 10.2798 14.0918C10.6382 14.466 10.8886 14.9347 11.0031 15.4459C11.0769 15.7488 11.0769 16.1274 11.0769 16.5817V21.3139C11.0769 21.7303 11.0769 22.1089 11.0031 22.4496C10.8796 22.9586 10.6211 23.4226 10.2561 23.7902C9.89112 24.1577 9.43398 24.4144 8.93538 24.5318C8.64 24.6075 8.27077 24.6075 7.86462 24.6075H3.24923C2.84308 24.6075 2.47385 24.6075 2.14154 24.5318C1.64294 24.4144 1.1858 24.1577 0.820822 23.7902C0.455842 23.4226 0.197291 22.9586 0.0738462 22.4496C8.59682e-09 22.1089 0 21.7303 0 21.3139V16.5817C0 16.1652 8.59682e-09 15.7867 0.0738462 15.4459C0.188327 14.9347 0.438682 14.466 0.797144 14.0918C1.15561 13.7176 1.60816 13.4525 2.10462 13.3259C2.43692 13.2502 2.80615 13.2502 3.24923 13.2502ZM3.36 15.1431C2.80615 15.1431 2.65846 15.1431 2.58461 15.1809C2.42447 15.2231 2.2783 15.3086 2.16138 15.4284C2.04447 15.5483 1.9611 15.6982 1.92 15.8624C1.84615 15.9381 1.84615 16.0895 1.84615 16.6574V21.2003C1.84615 21.7682 1.84615 21.9196 1.88308 21.9953C1.92418 22.1595 2.00755 22.3094 2.12446 22.4293C2.24137 22.5491 2.38754 22.6346 2.54769 22.6768C2.62154 22.7146 2.73231 22.7146 3.32308 22.7146H7.75385C8.30769 22.7146 8.45538 22.7146 8.52923 22.6768C8.68938 22.6346 8.83555 22.5491 8.95246 22.4293C9.06938 22.3094 9.15274 22.1595 9.19385 21.9953C9.23077 21.9196 9.23077 21.806 9.23077 21.2003V16.6574C9.23077 16.0895 9.23077 15.9381 9.19385 15.8624C9.15274 15.6982 9.06938 15.5483 8.95246 15.4284C8.83555 15.3086 8.68938 15.2231 8.52923 15.1809C8.45538 15.1431 8.30769 15.1431 7.75385 15.1431H3.36ZM16.2831 13.2502H16.1723C15.7662 13.2502 15.3969 13.2502 15.0646 13.3259C14.5614 13.4463 14.101 13.7086 13.7356 14.0833C13.3702 14.4579 13.1143 14.93 12.9969 15.4459C12.9231 15.7488 12.9231 16.1274 12.9231 16.5817V21.3139C12.9231 21.7303 12.9231 22.1089 12.9969 22.4496C13.1204 22.9586 13.3789 23.4226 13.7439 23.7902C14.1089 24.1577 14.566 24.4144 15.0646 24.5318C15.3969 24.6075 15.7662 24.6075 16.1723 24.6075H20.7877C21.1938 24.6075 21.5631 24.6075 21.8954 24.5318C22.3872 24.4083 22.8366 24.1488 23.1946 23.7817C23.5526 23.4146 23.8057 22.9539 23.9262 22.4496C24 22.1089 24 21.7303 24 21.3139V16.5817C24 16.1652 24 15.7867 23.9262 15.4459C23.8117 14.9347 23.5613 14.466 23.2029 14.0918C22.8444 13.7176 22.3918 13.4525 21.8954 13.3259C21.5631 13.2502 21.1938 13.2502 20.7877 13.2502H16.2831ZM15.4708 15.1809C15.5446 15.1431 15.6923 15.1431 16.2462 15.1431H20.6769C21.2308 15.1431 21.3785 15.1431 21.4523 15.1809C21.6125 15.2231 21.7586 15.3086 21.8755 15.4284C21.9925 15.5483 22.0758 15.6982 22.1169 15.8624C22.1538 15.9381 22.1538 16.0517 22.1538 16.6574V21.2003C22.1538 21.7682 22.1538 21.9196 22.1169 21.9953C22.0758 22.1595 21.9925 22.3094 21.8755 22.4293C21.7586 22.5491 21.6125 22.6346 21.4523 22.6768C21.3785 22.7146 21.2677 22.7146 20.6769 22.7146H16.2462C15.6923 22.7146 15.5446 22.7146 15.4708 22.6768C15.3106 22.6346 15.1644 22.5491 15.0475 22.4293C14.9306 22.3094 14.8473 22.1595 14.8062 21.9953C14.7692 21.9196 14.7692 21.7682 14.7692 21.2003V16.6574C14.7692 16.0895 14.7692 15.9381 14.8062 15.8624C14.8473 15.6982 14.9306 15.5483 15.0475 15.4284C15.1644 15.3086 15.3106 15.2231 15.4708 15.1809Z" fill="black"/>
</svg>
