<svg width="25" height="25" viewBox="0 0 25 25" fill="none" xmlns="http://www.w3.org/2000/svg">
<path d="M14.0667 11.4667H10.9333C10.2438 11.4667 9.58245 11.1927 9.09486 10.7051C8.60727 10.2175 8.33334 9.55622 8.33334 8.86666C8.33334 8.1771 8.60727 7.51578 9.09486 7.02818C9.58245 6.54059 10.2438 6.26666 10.9333 6.26666H11.4667V7.29999C11.4667 7.57847 11.5773 7.84554 11.7742 8.04246C11.9711 8.23937 12.2382 8.34999 12.5167 8.34999C12.7951 8.34999 13.0622 8.23937 13.2591 8.04246C13.456 7.84554 13.5667 7.57847 13.5667 7.29999V6.26666H14.1C14.7838 6.27543 15.4366 6.55322 15.917 7.03987C16.3974 7.52652 16.6667 8.18284 16.6667 8.86666C16.6667 9.14514 16.7773 9.41221 16.9742 9.60912C17.1711 9.80604 17.4382 9.91666 17.7167 9.91666C17.9951 9.91666 18.2622 9.80604 18.4591 9.60912C18.656 9.41221 18.7667 9.14514 18.7667 8.86666C18.7667 7.62014 18.2715 6.42468 17.3901 5.54326C16.5087 4.66184 15.3132 4.16666 14.0667 4.16666H13.5333V3.13333C13.5333 2.85485 13.4227 2.58778 13.2258 2.39087C13.0289 2.19395 12.7618 2.08333 12.4833 2.08333C12.2049 2.08333 11.9378 2.19395 11.7409 2.39087C11.544 2.58778 11.4333 2.85485 11.4333 3.13333V4.16666H10.9C9.72612 4.26578 8.63227 4.80213 7.83507 5.66948C7.03787 6.53683 6.59546 7.67194 6.59546 8.85C6.59546 10.0281 7.03787 11.1632 7.83507 12.0305C8.63227 12.8979 9.72612 13.4342 10.9 13.5333H14.0333C14.7229 13.5333 15.3842 13.8073 15.8718 14.2949C16.3594 14.7824 16.6333 15.4438 16.6333 16.1333C16.6333 16.8229 16.3594 17.4842 15.8718 17.9718C15.3842 18.4594 14.7229 18.7333 14.0333 18.7333H13.5333V17.7C13.5333 17.4215 13.4227 17.1544 13.2258 16.9575C13.0289 16.7606 12.7618 16.65 12.4833 16.65C12.2049 16.65 11.9378 16.7606 11.7409 16.9575C11.544 17.1544 11.4333 17.4215 11.4333 17.7V18.7333H10.9C10.2162 18.7246 9.56344 18.4468 9.08304 17.9601C8.60263 17.4735 8.33328 16.8172 8.33334 16.1333C8.33334 15.8549 8.22271 15.5878 8.0258 15.3909C7.82889 15.194 7.56181 15.0833 7.28334 15.0833C7.00486 15.0833 6.73779 15.194 6.54088 15.3909C6.34396 15.5878 6.23334 15.8549 6.23334 16.1333C6.23334 17.3798 6.72851 18.5753 7.60994 19.4567C8.49136 20.3382 9.68682 20.8333 10.9333 20.8333H11.4667V21.8667C11.4667 22.1451 11.5773 22.4122 11.7742 22.6091C11.9711 22.806 12.2382 22.9167 12.5167 22.9167C12.7951 22.9167 13.0622 22.806 13.2591 22.6091C13.456 22.4122 13.5667 22.1451 13.5667 21.8667V20.8333H14.1C15.2739 20.7342 16.3677 20.1979 17.1649 19.3305C17.9621 18.4632 18.4045 17.3281 18.4045 16.15C18.4045 14.9719 17.9621 13.8368 17.1649 12.9695C16.3677 12.1021 15.2739 11.5658 14.1 11.4667" fill="#213453"/>
</svg>
