<svg width="25" height="25" viewBox="0 0 25 25" fill="none" xmlns="http://www.w3.org/2000/svg">
<path d="M4.16667 4.16667V20.8333C4.16667 21.3903 4.38792 21.9244 4.78175 22.3183C5.17557 22.7121 5.70972 22.9333 6.26667 22.9333H18.7667C19.3236 22.9333 19.8578 22.7121 20.2516 22.3183C20.6454 21.9244 20.8667 21.3903 20.8667 20.8333V8.7C20.8663 8.4204 20.8101 8.1437 20.7013 7.88612C20.5925 7.62854 20.4334 7.39527 20.2333 7.2L15.6 2.66667C15.2029 2.29498 14.6772 2.09183 14.1333 2.1H6.26667C5.70972 2.1 5.17557 2.32125 4.78175 2.71507C4.38792 3.1089 4.16667 3.60971 4.16667 4.16667Z" stroke="black" stroke-width="2.08333" stroke-linecap="round" stroke-linejoin="round"/>
<path d="M9.36667 13.5333H15.6333" stroke="black" stroke-width="2.08333" stroke-linecap="round" stroke-linejoin="round"/>
<path d="M9.36667 17.7H12.5" stroke="black" stroke-width="2.08333" stroke-linecap="round" stroke-linejoin="round"/>
<path d="M14.6 2.10001V6.26667C14.6 6.82363 14.8213 7.35777 15.2151 7.7516C15.6089 8.14542 16.1431 8.36667 16.7 8.36667H20.8667" stroke="black" stroke-width="2.08333" stroke-linejoin="round"/>
</svg>
