<svg width="25" height="28" viewBox="0 0 25 28" fill="none" xmlns="http://www.w3.org/2000/svg">
<path d="M4.16667 8.176C4.16667 7.86906 4.27554 7.57469 4.46933 7.35764C4.66312 7.1406 4.92595 7.01867 5.20001 7.01867H6.23334C6.51182 7.01867 6.77889 7.14257 6.9758 7.36311C7.17271 7.58365 7.28334 7.88277 7.28334 8.19467C7.28334 8.50656 7.17271 8.80568 6.9758 9.02623C6.77889 9.24677 6.51182 9.37067 6.23334 9.37067H5.20001C5.06431 9.37067 4.92994 9.34073 4.80457 9.28257C4.6792 9.22441 4.56528 9.13916 4.46933 9.03169C4.37337 8.92423 4.29726 8.79664 4.24533 8.65623C4.1934 8.51581 4.16667 8.36532 4.16667 8.21334M9.36667 8.21334C9.36667 7.90639 9.47554 7.61202 9.66933 7.39498C9.86312 7.17794 10.1259 7.056 10.4 7.056H19.7667C20.0451 7.056 20.3122 7.1799 20.5091 7.40045C20.706 7.62099 20.8167 7.92011 20.8167 8.232C20.8167 8.5439 20.706 8.84302 20.5091 9.06356C20.3122 9.2841 20.0451 9.408 19.7667 9.408H10.4C10.1259 9.408 9.86312 9.28607 9.66933 9.06903C9.47554 8.85199 9.36667 8.55761 9.36667 8.25067M4.16667 14.0747C4.16667 13.9227 4.1934 13.7722 4.24533 13.6318C4.29726 13.4914 4.37337 13.3638 4.46933 13.2563C4.56528 13.1488 4.6792 13.0636 4.80457 13.0054C4.92994 12.9473 5.06431 12.9173 5.20001 12.9173H6.23334C6.51182 12.9173 6.77889 13.0412 6.9758 13.2618C7.17271 13.4823 7.28334 13.7814 7.28334 14.0933C7.28334 14.4052 7.17271 14.7044 6.9758 14.9249C6.77889 15.1454 6.51182 15.2693 6.23334 15.2693H5.20001C4.92595 15.2693 4.66312 15.1474 4.46933 14.9304C4.27554 14.7133 4.16667 14.3816 4.16667 14.0747ZM9.36667 14.112C9.36667 13.8051 9.47554 13.5107 9.66933 13.2936C9.86312 13.0766 10.1259 12.9547 10.4 12.9547H19.7667C20.0451 12.9547 20.3122 13.0786 20.5091 13.2991C20.706 13.5197 20.8167 13.8188 20.8167 14.1307C20.8167 14.4426 20.706 14.7417 20.5091 14.9622C20.3122 15.1828 20.0451 15.3067 19.7667 15.3067H10.4C10.1259 15.3067 9.86312 15.1847 9.66933 14.9677C9.47554 14.7507 9.36667 14.4563 9.36667 14.1493M4.16667 19.9733C4.16667 19.6664 4.27554 19.372 4.46933 19.155C4.66312 18.9379 4.92595 18.816 5.20001 18.816H6.23334C6.51182 18.816 6.77889 18.9399 6.9758 19.1604C7.17271 19.381 7.28334 19.6801 7.28334 19.992C7.28334 20.3039 7.17271 20.603 6.9758 20.8236C6.77889 21.0441 6.51182 21.168 6.23334 21.168H5.20001C4.92595 21.168 4.66312 21.0461 4.46933 20.829C4.27554 20.612 4.16667 20.2803 4.16667 19.9733ZM9.36667 20.0107C9.36667 19.7037 9.47554 19.4094 9.66933 19.1923C9.86312 18.9753 10.1259 18.8533 10.4 18.8533H19.7667C20.0451 18.8533 20.3122 18.9772 20.5091 19.1978C20.706 19.4183 20.8167 19.7174 20.8167 20.0293C20.8167 20.3412 20.706 20.6404 20.5091 20.8609C20.3122 21.0814 20.0451 21.2053 19.7667 21.2053H10.4C10.1259 21.2053 9.86312 21.0834 9.66933 20.8664C9.47554 20.6493 9.36667 20.3176 9.36667 20.0107Z" fill="#0D0D0D"/>
</svg>
