<svg width="25" height="25" viewBox="0 0 25 25" fill="none" xmlns="http://www.w3.org/2000/svg">
<path d="M4.16669 7.3C4.16669 7.02594 4.27556 6.76311 4.46934 6.56932C4.66313 6.37553 4.92596 6.26666 5.20002 6.26666H6.23335C6.51183 6.26666 6.7789 6.37729 6.97582 6.5742C7.17273 6.77111 7.28335 7.03819 7.28335 7.31666C7.28335 7.59514 7.17273 7.86221 6.97582 8.05912C6.7789 8.25604 6.51183 8.36666 6.23335 8.36666H5.20002C5.06432 8.36666 4.92995 8.33993 4.80458 8.28801C4.67921 8.23608 4.5653 8.15996 4.46934 8.06401C4.37339 7.96805 4.29727 7.85414 4.24534 7.72877C4.19341 7.6034 4.16669 7.46903 4.16669 7.33333M9.36669 7.33333C9.36669 7.05927 9.47556 6.79644 9.66934 6.60265C9.86313 6.40886 10.126 6.3 10.4 6.3H19.7667C20.0452 6.3 20.3122 6.41062 20.5091 6.60753C20.7061 6.80445 20.8167 7.07152 20.8167 7.35C20.8167 7.62847 20.7061 7.89554 20.5091 8.09246C20.3122 8.28937 20.0452 8.4 19.7667 8.4H10.4C10.126 8.4 9.86313 8.29113 9.66934 8.09734C9.47556 7.90355 9.36669 7.64072 9.36669 7.36666M4.16669 12.5667C4.16669 12.431 4.19341 12.2966 4.24534 12.1712C4.29727 12.0459 4.37339 11.9319 4.46934 11.836C4.5653 11.74 4.67921 11.6639 4.80458 11.612C4.92995 11.5601 5.06432 11.5333 5.20002 11.5333H6.23335C6.51183 11.5333 6.7789 11.644 6.97582 11.8409C7.17273 12.0378 7.28335 12.3049 7.28335 12.5833C7.28335 12.8618 7.17273 13.1289 6.97582 13.3258C6.7789 13.5227 6.51183 13.6333 6.23335 13.6333H5.20002C4.92596 13.6333 4.66313 13.5245 4.46934 13.3307C4.27556 13.1369 4.16669 12.8407 4.16669 12.5667ZM9.36669 12.6C9.36669 12.3259 9.47556 12.0631 9.66934 11.8693C9.86313 11.6755 10.126 11.5667 10.4 11.5667H19.7667C20.0452 11.5667 20.3122 11.6773 20.5091 11.8742C20.7061 12.0711 20.8167 12.3382 20.8167 12.6167C20.8167 12.8951 20.7061 13.1622 20.5091 13.3591C20.3122 13.556 20.0452 13.6667 19.7667 13.6667H10.4C10.126 13.6667 9.86313 13.5578 9.66934 13.364C9.47556 13.1702 9.36669 12.9074 9.36669 12.6333M4.16669 17.8333C4.16669 17.5593 4.27556 17.2964 4.46934 17.1027C4.66313 16.9089 4.92596 16.8 5.20002 16.8H6.23335C6.51183 16.8 6.7789 16.9106 6.97582 17.1075C7.17273 17.3044 7.28335 17.5715 7.28335 17.85C7.28335 18.1285 7.17273 18.3955 6.97582 18.5925C6.7789 18.7894 6.51183 18.9 6.23335 18.9H5.20002C4.92596 18.9 4.66313 18.7911 4.46934 18.5973C4.27556 18.4036 4.16669 18.1074 4.16669 17.8333ZM9.36669 17.8667C9.36669 17.5926 9.47556 17.3298 9.66934 17.136C9.86313 16.9422 10.126 16.8333 10.4 16.8333H19.7667C20.0452 16.8333 20.3122 16.944 20.5091 17.1409C20.7061 17.3378 20.8167 17.6049 20.8167 17.8833C20.8167 18.1618 20.7061 18.4289 20.5091 18.6258C20.3122 18.8227 20.0452 18.9333 19.7667 18.9333H10.4C10.126 18.9333 9.86313 18.8245 9.66934 18.6307C9.47556 18.4369 9.36669 18.1407 9.36669 17.8667Z" fill="#213453"/>
</svg>
