<svg width="19" height="23" viewBox="0 0 19 23" fill="none" xmlns="http://www.w3.org/2000/svg">
<path d="M1.16669 3.16667V19.8333C1.16669 20.3903 1.38794 20.9244 1.78176 21.3183C2.17559 21.7121 2.70973 21.9333 3.26669 21.9333H15.7667C16.3236 21.9333 16.8578 21.7121 17.2516 21.3183C17.6454 20.9244 17.8667 20.3903 17.8667 19.8333V7.7C17.8663 7.4204 17.8101 7.1437 17.7013 6.88612C17.5926 6.62854 17.4335 6.39527 17.2334 6.2L12.6 1.66667C12.203 1.29498 11.6772 1.09183 11.1334 1.1H3.26669C2.70973 1.1 2.17559 1.32125 1.78176 1.71507C1.38794 2.1089 1.16669 2.60971 1.16669 3.16667Z" stroke="#213453" stroke-width="2.08333" stroke-linecap="round" stroke-linejoin="round"/>
<path d="M6.3667 12.5333H12.6334" stroke="#213453" stroke-width="2.08333" stroke-linecap="round" stroke-linejoin="round"/>
<path d="M6.3667 16.7H9.50003" stroke="#213453" stroke-width="2.08333" stroke-linecap="round" stroke-linejoin="round"/>
<path d="M11.6 1.10001V5.26667C11.6 5.82363 11.8213 6.35777 12.2151 6.7516C12.6089 7.14542 13.1431 7.36667 13.7 7.36667H17.8667" stroke="#213453" stroke-width="2.08333" stroke-linejoin="round"/>
</svg>
