<svg width="25" height="26" viewBox="0 0 25 26" fill="none" xmlns="http://www.w3.org/2000/svg">
<g clip-path="url(#clip0_4_16)">
<path d="M4.16667 3.67452H10.4167V9.72373H4.16667V3.67452ZM20.8333 3.67452V9.72373H14.5833V3.67452H20.8333ZM14.5833 14.7647H16.6667V12.7483H14.5833V10.7319H16.6667V12.7483H18.75V10.7319H20.8333V12.7483H18.75V14.7647H20.8333V17.7894H18.75V19.8058H16.6667V17.7894H13.5417V19.8058H11.4583V15.773H14.5833V14.7647ZM16.6667 14.7647V17.7894H18.75V14.7647H16.6667ZM4.16667 19.8058V13.7565H10.4167V19.8058H4.16667ZM6.25 5.69092V7.70733H8.33333V5.69092H6.25ZM16.6667 5.69092V7.70733H18.75V5.69092H16.6667ZM6.25 15.773V17.7894H8.33333V15.773H6.25ZM4.16667 10.7319H6.25V12.7483H4.16667V10.7319ZM9.375 10.7319H13.5417V14.7647H11.4583V12.7483H9.375V10.7319ZM11.4583 5.69092H13.5417V9.72373H11.4583V5.69092ZM2.08333 1.65811V5.69092H0V1.65811C0 1.12333 0.219493 0.610446 0.610194 0.232296C1.00089 -0.145853 1.5308 -0.358295 2.08333 -0.358295L6.25 -0.358295V1.65811H2.08333ZM22.9167 -0.358295C23.4692 -0.358295 23.9991 -0.145853 24.3898 0.232296C24.7805 0.610446 25 1.12333 25 1.65811V5.69092H22.9167V1.65811H18.75V-0.358295H22.9167ZM2.08333 17.7894V21.8222H6.25V23.8386H2.08333C1.5308 23.8386 1.00089 23.6261 0.610194 23.248C0.219493 22.8698 0 22.357 0 21.8222L0 17.7894H2.08333ZM22.9167 21.8222V17.7894H25V21.8222C25 22.357 24.7805 22.8698 24.3898 23.248C23.9991 23.6261 23.4692 23.8386 22.9167 23.8386H18.75V21.8222H22.9167Z" fill="black"/>
</g>
<defs>
<clipPath id="clip0_4_16">
<rect width="25" height="26" fill="white"/>
</clipPath>
</defs>
</svg>
