<svg width="23" height="25" viewBox="0 0 23 25" fill="none" xmlns="http://www.w3.org/2000/svg">
<path d="M11.2333 2.50167C9.90725 2.50167 8.63548 3.0288 7.6978 3.96711C6.76012 4.90542 6.23333 6.17804 6.23333 7.505C6.23333 8.83197 6.76012 10.1046 7.6978 11.0429C8.63548 11.9812 9.90725 12.5083 11.2333 12.5083C12.5594 12.5083 13.8312 11.9812 14.7689 11.0429C15.7065 10.1046 16.2333 8.83197 16.2333 7.505C16.2333 6.17804 15.7065 4.90542 14.7689 3.96711C13.8312 3.0288 12.5594 2.50167 11.2333 2.50167ZM3.73333 7.505C3.73333 6.51943 3.92733 5.54351 4.30424 4.63296C4.68115 3.72241 5.23359 2.89507 5.93003 2.19816C6.62647 1.50126 7.45326 0.948446 8.36321 0.571284C9.27315 0.194123 10.2484 0 11.2333 0C12.2182 0 13.1935 0.194123 14.1035 0.571284C15.0134 0.948446 15.8402 1.50126 16.5366 2.19816C17.2331 2.89507 17.7855 3.72241 18.1624 4.63296C18.5393 5.54351 18.7333 6.51943 18.7333 7.505C18.7333 9.49545 17.9432 11.4044 16.5366 12.8118C15.1301 14.2193 13.2225 15.01 11.2333 15.01C9.24421 15.01 7.33656 14.2193 5.93003 12.8118C4.52351 11.4044 3.73333 9.49545 3.73333 7.505ZM6.23333 20.0133C5.24319 20.0133 4.2936 20.4069 3.59347 21.1075C2.89333 21.8081 2.5 22.7584 2.5 23.7492C2.5 24.0809 2.3683 24.3991 2.13388 24.6336C1.89946 24.8682 1.58152 25 1.25 25C0.918479 25 0.600537 24.8682 0.366117 24.6336C0.131696 24.3991 0 24.0809 0 23.7492C0 22.086 0.660236 20.491 1.83546 19.315C3.01069 18.139 4.60464 17.4783 6.26667 17.4783H16.2667C17.9287 17.4783 19.5226 18.139 20.6979 19.315C21.8731 20.491 22.5333 22.086 22.5333 23.7492C22.5333 24.0809 22.4016 24.3991 22.1672 24.6336C21.9328 24.8682 21.6149 25 21.2833 25C20.9518 25 20.6339 24.8682 20.3995 24.6336C20.165 24.3991 20.0333 24.0809 20.0333 23.7492C20.0333 22.7584 19.64 21.8081 18.9399 21.1075C18.2397 20.4069 17.2901 20.0133 16.3 20.0133H6.23333Z" fill="#0D0D0D"/>
</svg>
