<?xml version="1.0" standalone="no"?>
<!DOCTYPE svg PUBLIC "-//W3C//DTD SVG 20010904//EN"
 "http://www.w3.org/TR/2001/REC-SVG-20010904/DTD/svg10.dtd">
<svg version="1.0" xmlns="http://www.w3.org/2000/svg"
 width="479.000000pt" height="169.000000pt" viewBox="0 0 479.000000 169.000000"
 preserveAspectRatio="xMidYMid meet">

<g transform="translate(0.000000,169.000000) scale(0.100000,-0.100000)"
fill="#000000" stroke="none">
<path d="M223 1561 c-26 -12 -52 -35 -70 -62 l-28 -43 -3 -588 c-2 -391 1
-602 8 -628 13 -49 67 -103 119 -118 61 -19 4222 -16 4274 2 48 18 74 41 98
88 18 35 19 68 19 635 0 670 4 636 -73 697 l-39 31 -2131 2 c-2077 3 -2133 2
-2174 -16z m1332 -231 c7 0 28 -12 45 -26 42 -36 25 -55 -23 -25 -45 28 -82
27 -112 -4 -54 -53 -12 -145 65 -145 24 0 60 34 60 55 0 11 -11 15 -40 15 -29
0 -40 4 -40 15 0 12 14 15 66 15 l67 0 -7 -32 c-14 -68 -51 -98 -124 -98 -92
0 -142 103 -89 181 22 34 79 62 105 53 8 -2 20 -4 27 -4z m1092 -5 c40 -11 73
-62 73 -112 0 -38 -5 -50 -34 -79 -28 -28 -41 -34 -77 -34 -24 0 -55 6 -69 13
-29 14 -60 70 -60 108 0 39 41 92 80 106 34 11 42 11 87 -2z m-847 -10 c0 -11
-12 -15 -46 -15 -45 0 -45 0 -42 -32 3 -30 6 -33 41 -36 53 -5 51 -32 -3 -32
-39 0 -40 -1 -40 -35 0 -35 0 -35 45 -35 33 0 45 -4 45 -15 0 -12 -14 -15 -65
-15 l-65 0 0 115 0 115 65 0 c51 0 65 -3 65 -15z m200 0 c0 -10 -10 -15 -30
-15 l-30 0 0 -100 c0 -93 -1 -100 -20 -100 -19 0 -20 7 -20 100 l0 100 -30 0
c-20 0 -30 5 -30 15 0 12 16 15 80 15 64 0 80 -3 80 -15z m170 -100 c0 -108
-1 -115 -20 -115 -19 0 -20 7 -20 115 0 108 1 115 20 115 19 0 20 -7 20 -115z
m200 100 c0 -10 -10 -15 -30 -15 l-30 0 0 -100 c0 -93 -1 -100 -20 -100 -19 0
-20 7 -20 100 l0 100 -30 0 c-20 0 -30 5 -30 15 0 12 16 15 80 15 64 0 80 -3
80 -15z m485 -67 l55 -83 0 83 c0 75 2 82 20 82 19 0 20 -7 20 -115 0 -109 -1
-115 -20 -115 -15 0 -36 23 -73 81 l-52 80 -3 -80 c-3 -73 -5 -81 -22 -81 -19
0 -20 7 -20 115 0 108 1 115 20 115 14 0 37 -25 75 -82z m-2367 60 c-2 -7 8
-13 24 -13 14 -1 32 -6 40 -13 8 -6 18 -9 21 -5 4 3 7 1 7 -6 0 -7 5 -9 10 -6
6 3 10 2 10 -4 0 -5 10 -11 23 -13 16 -2 21 -9 19 -25 -3 -20 1 -22 33 -19 39
3 59 -12 49 -38 -7 -19 0 -20 27 -6 15 8 27 6 54 -13 19 -13 32 -27 27 -32 -4
-4 0 -6 9 -2 9 3 23 -3 32 -14 10 -12 12 -19 5 -19 -6 0 -8 -3 -5 -6 4 -4 14
-1 24 7 15 12 16 12 10 -5 -6 -16 -5 -17 7 -7 12 10 33 2 113 -44 54 -31 108
-67 121 -81 28 -32 28 -76 0 -107 -21 -23 -191 -127 -206 -127 -4 0 -33 29
-66 65 -105 118 -110 125 -97 138 6 6 11 16 11 21 0 6 -5 4 -10 -4 -9 -13 -14
-10 -35 15 -14 17 -25 36 -25 43 0 6 -4 12 -9 12 -6 0 -8 -9 -6 -20 2 -11 1
-18 -4 -16 -4 3 -14 -4 -21 -15 -16 -22 -36 -25 -43 -6 -3 9 -7 9 -19 0 -13
-11 -15 -8 -16 20 -2 41 7 69 19 62 15 -10 10 5 -11 32 -11 14 -17 29 -14 35
3 5 -19 38 -50 74 -31 36 -56 70 -56 75 0 5 -7 9 -15 9 -8 0 -15 4 -15 9 0 5
-8 12 -17 15 -18 7 -18 7 54 -73 30 -33 44 -59 25 -47 -12 7 -45 -22 -37 -33
3 -6 1 -11 -4 -11 -6 0 -11 5 -11 10 0 7 -6 7 -19 0 -30 -15 -31 -14 -31 35 0
41 2 45 25 45 14 0 25 4 25 10 0 5 -7 7 -15 4 -10 -4 -15 0 -15 12 0 9 -7 25
-16 35 -14 16 -14 18 5 24 12 3 21 10 21 15 0 5 8 11 18 13 9 3 18 5 20 6 1 0
1 -4 0 -11z m92 -205 c0 -12 -2 -12 -15 1 -8 8 -15 20 -15 27 0 9 4 8 15 -1 8
-7 15 -19 15 -27z m-40 -7 c0 -21 28 -46 44 -40 15 6 30 -22 17 -31 -5 -3 -27
-4 -49 -3 -38 1 -40 3 -46 37 -3 22 -1 38 7 43 18 12 27 10 27 -6z m212 -179
c4 -7 8 -16 8 -22 -1 -5 -5 -2 -11 7 -9 16 -11 16 -29 -2 -24 -24 -49 -28 -30
-5 6 8 10 18 7 22 -3 4 7 9 21 10 15 0 30 -4 34 -10z m2098 -242 l0 -185 -35
0 -35 0 0 185 0 185 35 0 35 0 0 -185z m870 0 l0 -185 -35 0 -35 0 0 185 0
185 35 0 35 0 0 -185z m-3100 164 c0 -6 8 -8 19 -4 18 5 18 3 8 -20 -7 -14
-17 -23 -24 -21 -6 3 -13 0 -16 -7 -2 -6 -6 -3 -10 7 -4 10 -3 15 4 11 6 -4 7
3 3 19 -4 16 -2 26 5 26 6 0 11 -5 11 -11z m1015 0 c38 -11 105 -66 105 -88 0
-19 -70 -12 -97 9 -30 23 -73 26 -112 6 -58 -30 -70 -125 -23 -178 25 -27 36
-31 77 -31 40 0 52 4 72 27 12 15 23 31 23 37 0 5 -25 9 -55 9 -54 0 -55 0
-55 30 l0 30 91 0 91 0 -4 -55 c-4 -44 -11 -62 -34 -86 -56 -60 -134 -75 -210
-40 -59 27 -87 72 -92 147 -6 90 32 150 115 179 47 17 58 18 108 4z m1929 -28
c47 -45 44 -128 -7 -161 -12 -8 -49 -17 -82 -20 l-60 -5 -3 -68 -3 -68 -32 3
-32 3 -3 173 -2 174 99 -4 c89 -3 102 -6 125 -27z m-1564 -54 c64 -32 91 -138
51 -203 -35 -58 -129 -81 -192 -49 -68 36 -91 139 -46 206 29 43 60 59 117 59
25 0 56 -6 70 -13z m327 -7 c61 -37 81 -122 45 -189 -37 -69 -137 -92 -203
-48 -44 30 -59 60 -59 126 0 49 3 57 39 92 35 36 43 39 92 39 36 0 65 -7 86
-20z m291 4 c20 -14 22 -14 22 0 0 12 10 16 35 16 l35 0 0 -160 c0 -180 -7
-208 -62 -236 -50 -26 -140 -15 -178 21 -40 38 -40 65 0 65 17 0 39 -9 50 -20
11 -11 33 -20 50 -20 17 0 39 9 50 20 19 19 29 80 13 80 -5 0 -17 -7 -27 -15
-44 -33 -134 -9 -159 43 -37 72 -31 136 18 188 28 30 38 34 81 34 29 0 59 -7
72 -16z m492 1 c34 -18 59 -59 62 -107 l3 -33 -102 -3 c-91 -2 -101 -4 -96
-20 14 -40 78 -57 103 -27 7 9 29 15 51 15 l40 0 -15 -29 c-30 -57 -131 -79
-192 -42 -86 52 -81 203 7 248 33 17 104 16 139 -2z m846 0 c25 -19 34 -19 34
0 0 10 11 15 35 15 l35 0 0 -140 0 -140 -35 0 c-24 0 -35 5 -35 15 0 19 -9 19
-34 0 -24 -18 -82 -19 -116 -2 -86 44 -94 199 -12 249 33 21 102 23 128 3z
m248 -72 c17 -45 34 -84 37 -88 4 -3 22 35 40 85 l33 90 38 0 38 0 -13 -32
c-8 -18 -47 -111 -87 -205 l-73 -173 -33 0 c-19 0 -34 4 -34 9 0 5 12 35 26
67 30 68 31 61 -39 227 l-46 108 41 -3 41 -3 31 -82z m-3628 56 c6 -5 14 -6
17 -2 4 3 7 1 7 -5 0 -7 -2 -12 -4 -12 -2 0 -12 -3 -20 -6 -12 -5 -15 -2 -10
12 4 11 -7 3 -24 -16 -29 -33 -31 -33 -32 -12 0 12 7 25 16 29 8 3 13 12 10
19 -5 13 18 9 40 -7z m-101 -110 c-31 -28 -55 -24 -55 8 0 13 2 13 17 2 14
-12 16 -12 11 2 -5 11 1 15 26 15 l32 0 -31 -27z m-25 -52 c10 -4 8 -6 -7 -6
-16 -1 -23 5 -23 17 0 10 3 13 8 6 4 -6 14 -14 22 -17z"/>
<path d="M2553 1285 c-30 -21 -39 -74 -19 -113 25 -49 81 -57 121 -17 71 70
-21 187 -102 130z"/>
<path d="M441 1158 c12 -22 29 -23 29 -3 0 9 6 12 17 8 11 -4 14 -3 9 5 -4 6
-20 10 -35 9 -24 -2 -27 -5 -20 -19z"/>
<path d="M777 1124 c6 -15 23 -19 23 -5 0 5 -7 11 -14 14 -10 4 -13 1 -9 -9z"/>
<path d="M728 1113 c7 -3 16 -2 19 1 4 3 -2 6 -13 5 -11 0 -14 -3 -6 -6z"/>
<path d="M628 1055 c16 -20 19 -32 12 -55 -10 -34 -4 -41 26 -30 18 7 43 53
25 47 -3 -1 -20 13 -37 31 -37 38 -54 43 -26 7z m47 -56 c11 -17 -1 -21 -15
-4 -8 9 -8 15 -2 15 6 0 14 -5 17 -11z"/>
<path d="M873 1035 c0 -8 4 -12 9 -9 5 3 6 10 3 15 -9 13 -12 11 -12 -6z"/>
<path d="M833 1013 c-7 -2 -13 -9 -13 -15 0 -7 5 -7 13 1 8 6 18 7 22 3 5 -4
5 -1 1 6 -4 6 -8 12 -9 11 -1 0 -8 -3 -14 -6z"/>
<path d="M798 973 c6 -2 9 -10 6 -15 -4 -7 -2 -8 5 -4 13 9 5 26 -12 25 -9 0
-8 -2 1 -6z"/>
<path d="M3414 733 c1 -42 4 -48 25 -51 61 -9 103 29 82 74 -9 21 -18 24 -59
24 l-49 0 1 -47z"/>
<path d="M1880 690 c-42 -42 -10 -140 46 -140 37 0 74 42 74 85 0 44 -29 75
-70 75 -17 0 -39 -9 -50 -20z"/>
<path d="M2200 690 c-13 -13 -20 -33 -20 -60 0 -100 120 -108 136 -10 12 72
-67 119 -116 70z"/>
<path d="M2520 690 c-31 -31 -27 -93 6 -119 15 -12 35 -21 46 -21 31 0 68 45
68 83 0 65 -76 101 -120 57z"/>
<path d="M3013 710 c-12 -5 -27 -18 -33 -29 -10 -20 -8 -21 55 -21 48 0 65 3
65 14 0 29 -51 50 -87 36z"/>
<path d="M3861 684 c-28 -36 -27 -79 4 -109 56 -57 134 -4 118 79 -11 57 -86
75 -122 30z"/>
</g>
</svg>
