<?xml version="1.0" standalone="no"?>
<!DOCTYPE svg PUBLIC "-//W3C//DTD SVG 20010904//EN"
 "http://www.w3.org/TR/2001/REC-SVG-20010904/DTD/svg10.dtd">
<svg version="1.0" xmlns="http://www.w3.org/2000/svg"
 width="472.000000pt" height="165.000000pt" viewBox="0 0 472.000000 165.000000"
 preserveAspectRatio="xMidYMid meet">

<g transform="translate(0.000000,165.000000) scale(0.100000,-0.100000)"
fill="#000000" stroke="none">
<path d="M236 1545 c-51 -18 -101 -67 -115 -114 -17 -60 -15 -1173 3 -1224 18
-48 41 -74 88 -98 36 -18 97 -19 2157 -19 1473 0 2128 3 2148 11 38 14 83 57
99 96 11 26 14 144 14 628 0 578 -1 597 -20 635 -11 22 -39 52 -62 67 l-42 28
-2115 2 c-1783 2 -2122 0 -2155 -12z m2154 -350 c0 -118 -1 -125 -20 -125 -19
0 -20 7 -20 119 0 116 3 127 33 130 4 1 7 -55 7 -124z m670 -1 c0 -124 0 -125
-22 -123 -13 1 -37 -1 -55 -5 -45 -10 -88 14 -103 59 -28 84 53 156 131 115
15 -9 19 -7 17 7 -4 45 3 73 17 73 13 0 15 -21 15 -126z m828 85 c3 -33 5 -35
32 -31 74 11 100 -20 100 -118 0 -53 -2 -60 -20 -60 -18 0 -20 7 -20 63 0 67
-10 87 -45 87 -35 0 -45 -20 -45 -87 0 -56 -2 -63 -20 -63 -19 0 -20 7 -20
126 0 114 2 125 18 122 12 -2 18 -14 20 -39z m-2317 -17 c39 -43 41 -117 5
-159 -21 -25 -31 -28 -100 -31 l-76 -4 0 117 0 117 71 -4 c65 -3 74 -6 100
-36z m2199 13 c0 -18 5 -25 20 -25 11 0 20 -7 20 -15 0 -8 -9 -15 -20 -15 -18
0 -20 -7 -20 -60 0 -53 2 -60 20 -60 11 0 20 -7 20 -15 0 -18 -50 -21 -68 -3
-7 7 -12 39 -12 75 0 35 -4 63 -10 63 -5 0 -10 7 -10 15 0 8 5 15 10 15 6 0
10 11 10 25 0 18 5 25 20 25 15 0 20 -7 20 -25z m-1991 -35 c27 -14 44 -64 37
-105 -18 -94 -164 -94 -182 0 -7 40 9 90 35 105 21 12 87 13 110 0z m116 -62
l19 -73 19 73 c18 63 23 73 41 70 16 -2 25 -16 38 -63 9 -33 17 -62 18 -65 1
-3 10 24 19 60 13 52 21 66 38 68 21 3 21 2 -7 -85 -24 -78 -30 -88 -50 -88
-20 0 -26 9 -40 60 -18 65 -21 64 -41 -12 -11 -44 -16 -53 -35 -53 -20 0 -26
11 -48 84 -31 100 -31 96 -8 96 14 0 22 -16 37 -72z m390 52 c12 -13 19 -42
23 -90 4 -66 4 -70 -17 -70 -19 0 -21 5 -21 59 0 62 -15 91 -48 91 -36 0 -46
-18 -50 -85 -4 -54 -7 -65 -21 -63 -13 3 -17 19 -19 89 l-3 86 69 1 c57 1 72
-2 87 -18z m290 14 c19 -8 45 -55 45 -84 0 -41 -28 -79 -69 -91 -34 -10 -44
-9 -72 8 -55 31 -64 108 -19 153 20 20 80 27 115 14z m206 -4 c13 -7 19 -7 19
0 0 5 9 10 20 10 19 0 20 -7 20 -90 0 -83 -1 -90 -20 -90 -11 0 -20 4 -20 9 0
5 -14 3 -30 -6 -70 -34 -129 18 -121 107 5 57 77 89 132 60z m560 -3 c60 -46
46 -143 -25 -167 -90 -29 -156 53 -111 140 8 15 20 30 27 33 25 10 93 6 109
-6z m225 -8 c13 -15 20 -40 22 -90 4 -65 3 -69 -17 -69 -19 0 -21 6 -21 56 0
66 -13 94 -43 94 -37 0 -47 -19 -47 -87 0 -56 -2 -63 -20 -63 -19 0 -20 7 -20
89 l0 89 64 1 c52 1 66 -3 82 -20z m634 11 c20 -11 45 -74 35 -90 -3 -5 -35
-10 -71 -10 -64 0 -74 -6 -52 -28 15 -15 64 -16 73 -2 3 6 15 10 26 10 29 0 8
-34 -30 -50 -94 -38 -169 82 -99 158 23 24 84 30 118 12z m-3280 -45 c0 -64
-77 -155 -131 -155 -34 0 -36 13 -14 67 19 45 40 70 80 94 43 27 65 25 65 -6z
m65 -184 c22 -10 49 -28 59 -40 19 -21 19 -22 -12 -54 -75 -78 -69 -186 13
-254 30 -25 36 -36 32 -55 -11 -43 -76 -135 -115 -161 l-38 -27 -76 21 -75 21
-68 -21 c-67 -21 -69 -21 -104 -3 -77 40 -161 218 -161 343 0 79 15 129 53
175 52 63 127 80 219 48 43 -14 50 -14 110 5 79 25 112 25 163 2z m674 -371
c33 -94 61 -172 61 -175 0 -3 -16 -5 -35 -5 -30 0 -37 4 -50 35 l-14 36 -68
-3 c-67 -3 -67 -3 -77 -35 -8 -30 -13 -33 -47 -33 l-38 0 46 128 c25 70 52
148 61 175 16 46 17 47 58 47 l42 0 61 -170z m1112 141 c16 -16 29 -39 29 -50
0 -17 -6 -21 -35 -21 -23 0 -37 6 -44 19 -20 36 -91 31 -91 -7 0 -26 14 -36
82 -62 102 -38 127 -111 58 -172 -66 -60 -210 -21 -210 56 0 25 62 21 78 -5
10 -15 21 -19 50 -17 31 3 37 7 40 29 4 32 -8 42 -76 64 -68 22 -92 47 -92 98
0 29 7 45 29 68 26 26 36 29 91 29 55 0 65 -3 91 -29z m179 -6 c0 -32 2 -35
30 -35 27 0 30 -3 30 -30 0 -27 -3 -30 -30 -30 l-31 0 3 -77 c3 -77 3 -78 31
-81 23 -3 27 -8 27 -33 0 -27 -2 -29 -40 -29 -30 0 -47 7 -65 25 -23 22 -25
32 -25 110 0 69 -3 85 -15 85 -10 0 -15 10 -15 30 0 20 5 30 15 30 10 0 15 11
15 35 0 33 2 35 35 35 33 0 35 -2 35 -35z m-1110 -50 c0 -19 9 -19 34 0 26 19
79 19 117 -1 33 -17 69 -82 69 -124 0 -36 -34 -105 -61 -124 -30 -21 -103 -21
-134 0 l-25 16 0 -81 0 -81 -35 0 -35 0 0 205 0 205 35 0 c24 0 35 -5 35 -15z
m340 0 c0 -14 3 -14 30 0 37 19 83 19 120 0 83 -43 83 -207 0 -250 -38 -19
-99 -19 -128 1 l-22 15 0 -80 0 -81 -35 0 -35 0 0 205 0 205 35 0 c25 0 35 -4
35 -15z m1077 -2 c68 -32 92 -140 46 -209 -46 -71 -175 -74 -230 -4 -24 29
-34 88 -24 128 10 37 50 84 81 95 31 11 93 6 127 -10z m193 -4 l0 -20 26 20
c39 31 54 27 54 -13 0 -30 -4 -35 -30 -41 -41 -9 -50 -31 -50 -124 l0 -81 -35
0 -35 0 0 140 0 140 35 0 c29 0 35 -4 35 -21z m328 1 c35 -21 62 -72 62 -115
l0 -25 -100 0 c-105 0 -115 -5 -87 -44 17 -23 76 -25 92 -3 12 17 85 25 85 9
0 -16 -33 -53 -60 -67 -38 -19 -103 -19 -141 1 -62 32 -83 129 -44 205 29 56
131 77 193 39z"/>
<path d="M2926 1198 c-9 -12 -16 -29 -16 -38 0 -29 30 -60 59 -60 37 0 51 17
51 62 0 27 -5 40 -19 48 -31 16 -59 12 -75 -12z"/>
<path d="M1440 1185 l0 -85 40 0 c55 0 80 26 80 84 0 36 -5 48 -26 65 -15 12
-41 21 -60 21 l-34 0 0 -85z"/>
<path d="M1687 1202 c-35 -38 -12 -102 37 -102 49 0 75 70 38 103 -24 22 -55
21 -75 -1z"/>
<path d="M2487 1202 c-35 -38 -12 -102 37 -102 49 0 75 70 38 103 -24 22 -55
21 -75 -1z"/>
<path d="M2705 1206 c-21 -15 -25 -67 -5 -90 19 -24 66 -20 84 6 21 30 20 54
-4 78 -23 23 -49 25 -75 6z"/>
<path d="M3246 1205 c-19 -20 -21 -64 -3 -89 20 -27 68 -18 87 17 13 24 13 30
0 55 -18 32 -60 41 -84 17z"/>
<path d="M4112 1208 c-22 -22 -13 -28 40 -28 50 0 51 0 33 20 -20 22 -55 26
-73 8z"/>
<path d="M1532 658 c-12 -34 -22 -66 -22 -70 0 -5 21 -8 46 -8 45 0 46 1 41
28 -3 15 -14 47 -24 70 l-19 44 -22 -64z"/>
<path d="M1865 655 c-63 -62 8 -166 85 -125 27 14 41 64 28 100 -18 54 -73 66
-113 25z"/>
<path d="M2206 659 c-53 -42 -23 -139 44 -139 64 0 96 92 47 138 -29 28 -57
28 -91 1z"/>
<path d="M3140 660 c-27 -27 -28 -100 -2 -123 26 -24 75 -21 98 4 28 31 25 96
-5 120 -30 25 -66 24 -91 -1z"/>
<path d="M3656 664 c-32 -32 -20 -44 44 -44 51 0 60 3 60 18 0 10 -5 23 -12
30 -17 17 -74 15 -92 -4z"/>
</g>
</svg>
